<svg xmlns="http://www.w3.org/2000/svg" width="40.167" height="40.167" viewBox="0 0 40.167 40.167">
  <path id="Instagram_Glyph_Black" d="M14.265,2.644a14.649,14.649,0,0,0-4.872.943A9.829,9.829,0,0,0,5.84,5.909a9.838,9.838,0,0,0-2.31,3.56,14.756,14.756,0,0,0-.924,4.877c-.094,2.138-.115,2.825-.1,8.279s.035,6.138.138,8.28a14.681,14.681,0,0,0,.943,4.871,10.265,10.265,0,0,0,5.885,5.862,14.744,14.744,0,0,0,4.876.924c2.138.094,2.826.115,8.278.1s6.139-.035,8.281-.136a14.694,14.694,0,0,0,4.87-.943A10.264,10.264,0,0,0,41.634,35.7a14.69,14.69,0,0,0,.924-4.874c.094-2.144.116-2.828.105-8.281s-.035-6.137-.137-8.278A14.669,14.669,0,0,0,41.584,9.4a9.86,9.86,0,0,0-2.322-3.553A9.8,9.8,0,0,0,35.7,3.535a14.7,14.7,0,0,0-4.876-.924c-2.138-.092-2.826-.116-8.28-.106s-6.137.034-8.279.138M14.5,38.95a11.145,11.145,0,0,1-3.73-.683,6.254,6.254,0,0,1-2.313-1.5,6.186,6.186,0,0,1-1.506-2.306,11.123,11.123,0,0,1-.7-3.729c-.1-2.116-.121-2.752-.132-8.114s.009-6,.1-8.114A11.115,11.115,0,0,1,6.9,10.777,6.219,6.219,0,0,1,8.4,8.465a6.2,6.2,0,0,1,2.307-1.507,11.121,11.121,0,0,1,3.727-.7c2.118-.1,2.753-.121,8.114-.132s6,.008,8.116.1a11.107,11.107,0,0,1,3.729.683,6.649,6.649,0,0,1,3.819,3.805,11.064,11.064,0,0,1,.7,3.726c.1,2.118.124,2.753.133,8.114s-.009,6-.1,8.114a11.159,11.159,0,0,1-.683,3.731,6.651,6.651,0,0,1-3.805,3.818,11.124,11.124,0,0,1-3.726.7c-2.118.1-2.753.121-8.116.132s-6-.01-8.114-.1m16.372-27.1a2.41,2.41,0,1,0,2.405-2.414,2.41,2.41,0,0,0-2.405,2.414m-18.6,10.754A10.312,10.312,0,1,0,22.563,12.274,10.311,10.311,0,0,0,12.271,22.607m3.617-.007A6.695,6.695,0,1,1,22.6,29.281,6.695,6.695,0,0,1,15.888,22.6" transform="translate(-2.499 -2.503)" fill="#fff"/>
</svg>
